<svg width="55" height="61" viewBox="0 0 55 61" fill="none" xmlns="http://www.w3.org/2000/svg">
<path d="M39.1681 0C39.9061 9.76803e-05 40.6184 0.271953 41.1698 0.764001C41.7213 1.25605 42.0736 1.93407 42.16 2.66946L42.1811 3.02317V6.04634H45.194C47.4995 6.04621 49.7179 6.93009 51.3954 8.51713C53.0728 10.1042 54.0825 12.2744 54.2177 14.5838L54.2328 15.1158V51.3939C54.2329 53.7072 53.352 55.9332 51.7704 57.6164C50.1887 59.2995 48.0258 60.3126 45.7243 60.4483L45.194 60.4634H9.0388C6.73327 60.4635 4.51483 59.5796 2.8374 57.9926C1.15996 56.4056 0.150323 54.2353 0.015065 51.926L1.40416e-08 51.3939V15.1158C-0.000128416 12.8025 0.880756 10.5765 2.46242 8.89338C4.04408 7.21024 6.20696 6.19717 8.50852 6.06146L9.0388 6.04634H12.0517V3.02317C12.0526 2.25263 12.3466 1.51149 12.8738 0.951185C13.401 0.390883 14.1215 0.0537066 14.8881 0.00854917C15.6547 -0.0366083 16.4096 0.213661 16.9985 0.708222C17.5873 1.20278 17.9658 1.90431 18.0565 2.66946L18.0776 3.02317V6.04634H36.1552V3.02317C36.1552 2.22138 36.4726 1.45242 37.0377 0.885466C37.6027 0.318511 38.369 0 39.1681 0ZM48.2069 21.1622H6.02587V50.2602C6.02587 52.3915 7.18886 54.148 8.68628 54.3898L9.0388 54.4171H45.194C46.7396 54.4171 48.0141 52.8148 48.1858 50.7439L48.2069 50.2602V21.1622Z" fill="#00417A"/>
<path d="M27.1163 30.2314C27.8542 30.2315 28.5665 30.5034 29.118 30.9954C29.6695 31.4875 30.0218 32.1655 30.1081 32.9009L30.1292 33.2546V42.3241C30.1284 43.0947 29.8343 43.8358 29.3071 44.3961C28.78 44.9564 28.0595 45.2936 27.2929 45.3387C26.5262 45.3839 25.7714 45.1336 25.1825 44.6391C24.5936 44.1445 24.2151 43.443 24.1244 42.6778L24.1033 42.3241V36.2778C23.3354 36.2769 22.5968 35.9819 22.0384 35.4529C21.48 34.924 21.1439 34.201 21.0989 33.4318C21.0539 32.6626 21.3033 31.9051 21.7962 31.3142C22.2891 30.7234 22.9883 30.3436 23.7508 30.2526L24.1033 30.2314H27.1163Z" fill="#00417A"/>
</svg>
