<svg width="38" height="44" viewBox="0 0 38 44" fill="none" xmlns="http://www.w3.org/2000/svg">
<path d="M30.148 6.89333C28.4917 4.98551 27.5788 2.53586 27.5791 0H20.0906V30.3111C20.034 31.9518 19.3478 33.5062 18.1768 34.6463C17.0057 35.7865 15.4414 36.4232 13.8138 36.4222C10.3724 36.4222 7.51276 33.5867 7.51276 30.0667C7.51276 25.8622 11.5357 22.7089 15.6798 24.0044V16.28C7.31888 15.1556 0 21.7067 0 30.0667C0 38.2067 6.68878 44 13.7895 44C21.3992 44 27.5791 37.7667 27.5791 30.0667V14.6911C30.6157 16.8907 34.2615 18.0709 38 18.0644V10.5111C38 10.5111 33.4439 10.7311 30.148 6.89333Z" fill="white"/>
</svg>
